<mxfile host="app.diagrams.net" agent="Mozilla/5.0 (Windows NT 10.0; Win64; x64; rv:130.0) Gecko/20100101 Firefox/130.0" version="24.7.17">
  <diagram name="Seite-1" id="tn_3z17x3WRyJiO051i7">
    <mxGraphModel dx="1434" dy="745" grid="1" gridSize="10" guides="1" tooltips="1" connect="1" arrows="1" fold="1" page="1" pageScale="1" pageWidth="827" pageHeight="1169" math="0" shadow="0">
      <root>
        <mxCell id="0" />
        <mxCell id="1" parent="0" />
        <mxCell id="2mTOcdnNEThN-Fog_58e-1" value="" style="shape=image;verticalLabelPosition=bottom;verticalAlign=top;imageAspect=0;aspect=fixed;image=data:image/png,iVBORw0KGgoAAAANSUhEUgAAADIAAAAyCAIAAACRXR/mAAAAAXNSR0IArs4c6QAAAARnQU1BAACxjwv8YQUAAAAJcEhZcwAAFiUAABYlAUlSJPAAAAASdEVYdFNvZnR3YXJlAEdyZWVuc2hvdF5VCAUAAAY4SURBVFhH7Zh5UFVVHMetdKzMFsV9qzGt/rCpcaZsbGza1KZxnNKcqZmmxnTcEEEWEZElV8ZEEDdEywVEQWwUN0oR9xVBJdQkRERIQHYRWc6379Ez7/nue+/e+5Aap/Ez5497Dvfq595zzu/3O68VHkkea7nC/0iroEysOoTv14vBi9BnFp73QtupeMYDT3ugow/eCMVny+CThOTzqKkT6hkXcUHrTj2yi8QX0Wg9BZ18MXABwlJw+IoorRZCgK2+EVdLxK+ZmBKPvrOlbrcZ+HEXCivQ5KKeWa2TVzF0qWjjji+jkXwON8rlIFWccbcB5woQkYrXQ9AzAO6bUVqj/mQGY63aeixMEZyjIeG4UKAGzdPQhCX7RY+Z6B+M03lobFLj+hho3azC58vRKwBJZ0XlHTXYDHJLMS5Wrrw1R9WIPnpaOcX4IBx9g3AkR408DJzxeXvQzhOzd8hlqo9TrYJyDJiL939C3q1m7iZ7uCe2nxPtvRC8U404w7FW1R0xerXc6oUVLeZkYetZ8ew0xBzR254OtBoaMXETuEj/KFQjLQtX/ZzdcPPB+QKnXg60UrLl2uQ7qf6/w9gNol8QiqtVV4NWi+Ggsx88E+CSFDfslWJ1bRLez5dnMnAY/Gy0eMeCvejmL/egeYoq8VEE2ntid5ZegLUnfB/6BKLstoNnbLQqavHWPIyPVV0zcKsPW4ruMzEoXHSZgetlLnjxVsbY+XtV90FstDLyRUdv5JepriFNQngmymwdmYb4THwYgVeDkFOi/mqGhSngy9hndButSfH4KkZdG8L5Wp4mq4bQ35CYKdsvJ9DJj6kTdQ3qHkNO5wlWH9xkGqxa9Y2ioy/WHVNdQy4UiK4z8EMstmQoLbalaYKJmZ/Q5FzW3dthITudf62M63jOE8dzVVcfxtv+IXhvkVXI0qYl4qkpiDup7jRk3EaMWq2uLVi1NnAKfHHtlurqwHg4dYtcE9FHtU5s8ekYGiXrmUZzRVZiOt6cq64tWLUYeXvOFNV1qqvD1VK4+cJ/u1bowdYjABM2mTLLLRb8HBqsWt5JeDnQVOAZsljWXhoPTfNIxBOTcSpPPaID1zSLOQ1WLeZB+49pz8E/0dodoXu0HpoWdxrtvBCwXT2lD7ezBqsWlypLK0OYLvjNN6VrPTRta6acxAFz1FM6cH4YIzRYtYKSWYUKwwKNR4whkUIj4bDFZjj4DPbcrBIveatrC1atlYfAOFRUabC4eMQYuUpr4LBtNKeVegn9gtW1BatW6mW8MB2Z11XXGZPj0TsQCXYS9i1op0x5hgQn49NIdW3BqsUIyTDIU54+647LpcAkqJGwb/1D8e069ZQOXNDMChqsWmT4vdOwPiytuORHGM1jQDJaTcK2DIMlkVsiC+i4U6prwUYrJUt0tots9uzJkjGJkUmjYmlcVT1mCdZITUanwtgTeHIybtotaBut4ioZUZelqa4zmHxCd8mpHL0GMcdshFjeTE+Cmx8+juCqUPfrMDwKX69V1w9io0XnsRvxWgjKa9WIDrEn8eJ0tPXA4MWYGA/fbRizVs5vG3eMiWF5aJwueMjmVi0od3CnjRbJKhSsI9aaO/vmlrDkEnzdQWGyrB2xAoE7xNEcUz+E3KrB2/MxKlo0OJporRZhic0VZhjAHhK+OVOhs3jkQKv8tjxMfxLJ4l+NtDi/X0R3fxnAneFAi3B2WLp4JMjfg1qcS39Lp29+5j/udEIcaxEG/Q4+8Nsm6hvVSIuQXyYGLsCwKLm2dHCqxcS+4qA8YbIQdekXMx3OXJMB6N0w3KhQI85wqkVoduAymN4ZhEqqH2oHcG9uOCF4mvhuvcwThuhp3Yf5geUo9+bqw83ZBHyb7CJMiJOL1TcJt++qcX2MtQija0SqPBe9EoioA2rQDH+VyGzt5oPes3A4R6YHk5jSus+FG2J8rKBZVz94JYqEdJzNl78iWypHZsDKWsFdfPAKVh0SI1eigzfeCcOS/cY//2lwQYtwRjiP+7IFtxJTLL8f9wRPZr0CZMrq5o8ufjIjMU7yeM1y5WKRqLlr6tiiwTWt+/C/Yauqkxsi5gjm7JIJcVqCPFCEpWDzGZwvkOeZZthYaI7Wf8BjLVd4JLWAfwDjm3t7CIJ2DwAAAABJRU5ErkJggg==" vertex="1" parent="1">
          <mxGeometry x="300" y="220" width="50" height="50" as="geometry" />
        </mxCell>
      </root>
    </mxGraphModel>
  </diagram>
</mxfile>
